<svg id="Layer_14" data-name="Layer 14" xmlns="http://www.w3.org/2000/svg" xmlns:xlink="http://www.w3.org/1999/xlink" viewBox="0 0 24 24"><defs><style>.cls-1{fill:url(#radial-gradient);}.cls-2{fill:#fff;}</style><radialGradient id="radial-gradient" cx="6.98" cy="23.94" r="24.19" gradientUnits="userSpaceOnUse"><stop offset="0" stop-color="#ffd676"/><stop offset="0.25" stop-color="#f2a454"/><stop offset="0.38" stop-color="#f05c3c"/><stop offset="0.7" stop-color="#c22f86"/><stop offset="0.96" stop-color="#6666ad"/><stop offset="0.99" stop-color="#5c6cb2"/></radialGradient></defs><title>Icon_Social_Retina</title><circle class="cls-1" cx="12" cy="12" r="12"/><path class="cls-2" d="M15.14,19.81H8.86A4.46,4.46,0,0,1,4.4,15.35V8.65A4.46,4.46,0,0,1,8.86,4.19h6.28A4.46,4.46,0,0,1,19.6,8.65v6.7A4.46,4.46,0,0,1,15.14,19.81ZM8.86,5.32A3.33,3.33,0,0,0,5.53,8.65v6.7a3.33,3.33,0,0,0,3.33,3.33h6.28a3.33,3.33,0,0,0,3.33-3.33V8.65a3.33,3.33,0,0,0-3.33-3.33H8.86Z"/><path class="cls-2" d="M12,16a4,4,0,0,1-4-4A4.09,4.09,0,0,1,9.21,9.06,3.84,3.84,0,0,1,12,8a3.78,3.78,0,0,1,4,4h0A4,4,0,0,1,12,16ZM11.9,9.09a2.71,2.71,0,0,0-1.9.78A3,3,0,0,0,9.11,12a2.89,2.89,0,1,0,5.77,0A2.67,2.67,0,0,0,12,9.09H11.9Z"/><circle class="cls-2" cx="16.25" cy="7.71" r="0.97"/></svg>