<?xml version="1.0"?>
<svg xmlns="http://www.w3.org/2000/svg" xmlns:xlink="http://www.w3.org/1999/xlink" height="100%" width="100%" viewBox="0 0 512 512">
  <circle cx="256" cy="256" r="256" fill="#2175a2"/>
  <path fill="white" d="M188 132l-57 0 0 182 57 0z m-29 206c-18 0-33 15-33 33 0 19 15 34 33 34 19 0 34-15 34-34 0-18-15-33-34-33z m239-206l-56 0 0 96c0 26-10 40-30 40-23 0-34-15-34-40l0-96-54 0 0 182 54 0 0-25c0 0 16 30 54 30 39 0 66-23 66-72z" transform="scale(1, -1) translate(0,-512)"/>
</svg>
